# xmcd
#
# Track frame offsets: 
#        150
#        18816
#        36311
#        59667
#        75651
#        90783
#        106414
#        120208
#        138947
#        158964
#        173812
#        192264
#        207152
#        226243
#        247260
#        263698
#        286388
#
# Disc length: 4087 seconds
#
# Revision: 3
# Processed by: cddbd v1.5.2PL0 Copyright (c) Steve Scherf et al.
# Submitted via: ExactAudioCopy v1.0b2
#
DISCID=dd0ff511
DTITLE=Hana Hegerova - Vsechno nejlepsi CD2
DYEAR=2006
DGENRE=Avantgarde
TTITLE0=Ja rada vzpominam
TTITLE1=Levandulova
TTITLE2=Rozvod
TTITLE3=Vana plna fialek
TTITLE4=Cim dal tim vic
TTITLE5=Kolotoc
TTITLE6=Ceresne
TTITLE7=Lasko ma
TTITLE8=Ja se vratim
TTITLE9=Vsechno nejlepsi
TTITLE10=Denim Blue
TTITLE11=Tak uz bal
TTITLE12=Gabriel
TTITLE13=Berna mince
TTITLE14=Krasne sis to vymyslel
TTITLE15=Potmesily host
TTITLE16=Zila som spravne
EXTD=YEAR: 2006
EXTT0=
EXTT1=
EXTT2=
EXTT3=
EXTT4=
EXTT5=
EXTT6=
EXTT7=
EXTT8=
EXTT9=
EXTT10=
EXTT11=
EXTT12=
EXTT13=
EXTT14=
EXTT15=
EXTT16=
PLAYORDER=
